<svg xmlns="http://www.w3.org/2000/svg" xmlns:xlink="http://www.w3.org/1999/xlink" version="1.1" width="358" height="318"><defs/><g transform=" scale(0.89) translate(-292,-26)"><rect x="329" y="59" width="2" height="2" fill="#000000" stroke="none" pointer-events="none"/><g fill="#000000" font-family="Arial,Helvetica" text-anchor="middle" font-size="12px"><text x="329.69" y="34.86">+3.3V</text></g><path d="M 330 41 L 330 59" fill="#000000" stroke="#000000" stroke-width="2" stroke-linecap="square" stroke-miterlimit="10" pointer-events="none"/><path d="M 320 40 L 340 40" fill="none" stroke="#000000" stroke-width="2" stroke-linecap="square" stroke-miterlimit="10" pointer-events="none"/><rect x="329" y="339" width="2" height="2" fill="#000000" stroke="none" pointer-events="none"/><path d="M 319 361 C 341.02 361 341.02 361 341.02 361" fill="none" stroke="#000000" stroke-width="2" stroke-linecap="round" stroke-miterlimit="10" pointer-events="none"/><path d="M 323 367 C 332.57 367 337 367 337 367" fill="none" stroke="#000000" stroke-width="2" stroke-linecap="round" stroke-miterlimit="10" pointer-events="none"/><path d="M 327 373 C 330.12 373 333 373 333 373" fill="none" stroke="#000000" stroke-width="2" stroke-linecap="round" stroke-miterlimit="10" pointer-events="none"/><path d="M 330 341 L 330 359" fill="#000000" stroke="#000000" stroke-width="2" stroke-linecap="square" stroke-miterlimit="10" pointer-events="none"/><rect x="669" y="159" width="2" height="2" fill="#000000" stroke="none" transform="rotate(90,670,150)" pointer-events="none"/><ellipse cx="670" cy="150" rx="4.135" ry="4.135" fill="#ffffff" stroke="#000000" stroke-width="2" transform="rotate(90,670,150)" pointer-events="none"/><path d="M 670 155 L 670 159" fill="#ffffff" stroke="#000000" stroke-width="2" stroke-linecap="square" stroke-miterlimit="10" transform="rotate(90,670,150)" pointer-events="none"/><rect x="644" y="127" width="41" height="14" fill-opacity="0" fill="#dae2f2" stroke="none" pointer-events="none"/><g fill="#000000" font-family="Arial,Helvetica" font-weight="bold" text-anchor="middle" font-size="12px"><text x="664.5" y="138">BCM17</text></g><rect x="329" y="119" width="2" height="2" fill="#000000" stroke="none" pointer-events="none"/><rect x="329" y="179" width="2" height="2" fill="#000000" stroke="none" pointer-events="none"/><ellipse cx="330" cy="150" rx="19.644082235" ry="19.644082235" fill="#ffffff" stroke="#000000" stroke-width="2" pointer-events="none"/><path d="M 322 142.26 C 344 142.26 338 142.26 338 142.26" fill="none" stroke="#000000" stroke-width="2" stroke-linecap="round" stroke-miterlimit="10" pointer-events="none"/><path d="M 329.86 142.54 C 329.86 142.54 329.86 142.54 322 157.26 C 337.72 157.26 337.72 157.26 337.72 157.26 Z" fill="#000000" stroke="#000000" stroke-width="1.49" stroke-linejoin="round" stroke-linecap="round" stroke-miterlimit="10" pointer-events="none"/><path d="M 330 121 L 330 179" fill="#000000" stroke="#000000" stroke-width="2" stroke-linecap="square" stroke-miterlimit="10" pointer-events="none"/><path d="M 354.87 143.63 L 359.11 147.87 L 352.04 150.7 Z" fill="#000000" stroke="#000000" stroke-linejoin="round" stroke-linecap="square" stroke-miterlimit="10" pointer-events="none"/><path d="M 363.39 139.35 L 354.9 147.84" fill="none" stroke="#000000" stroke-width="2" stroke-linejoin="round" stroke-linecap="round" stroke-miterlimit="10" pointer-events="none"/><path d="M 352.55 132.57 L 356.79 136.81 L 349.72 139.64 Z" fill="#000000" stroke="#000000" stroke-linejoin="round" stroke-linecap="round" stroke-miterlimit="10" pointer-events="none"/><path d="M 361 128.36 L 352.51 136.84" fill="none" stroke="#000000" stroke-width="2" stroke-linejoin="round" stroke-linecap="round" stroke-miterlimit="10" pointer-events="none"/><rect x="296" y="120" width="16" height="14" fill-opacity="0" fill="#dae2f2" stroke="none" pointer-events="none"/><g fill="#000000" font-family="Arial,Helvetica" font-weight="bold" text-anchor="middle" font-size="12px"><text x="304" y="131">D1</text></g><rect x="329" y="249" width="2" height="2" fill="#000000" stroke="none" pointer-events="none"/><rect x="329" y="309" width="2" height="2" fill="#000000" stroke="none" pointer-events="none"/><path d="M 330 262 L 337 265 L 330 268" fill="none" stroke="#000000" stroke-width="2" stroke-linejoin="round" stroke-linecap="round" stroke-miterlimit="10" pointer-events="none"/><path d="M 330 268 L 323 271 L 330 274" fill="none" stroke="#000000" stroke-width="2" stroke-linejoin="round" stroke-linecap="round" stroke-miterlimit="10" pointer-events="none"/><path d="M 330 274 L 337 277 L 330 280" fill="none" stroke="#000000" stroke-width="2" stroke-linejoin="round" stroke-linecap="round" stroke-miterlimit="10" pointer-events="none"/><path d="M 330 280 L 323 283 L 330 286" fill="none" stroke="#000000" stroke-width="2" stroke-linejoin="round" stroke-linecap="round" stroke-miterlimit="10" pointer-events="none"/><path d="M 330 286 L 337 289 L 330 292" fill="none" stroke="#000000" stroke-width="2" stroke-linejoin="round" stroke-linecap="round" stroke-miterlimit="10" pointer-events="none"/><path d="M 330 292 L 323 295 L 330 298" fill="none" stroke="#000000" stroke-width="2" stroke-linejoin="round" stroke-linecap="round" stroke-miterlimit="10" pointer-events="none"/><path d="M 330 251 L 330 261" fill="#000000" stroke="#000000" stroke-width="2" stroke-linecap="square" stroke-miterlimit="10" pointer-events="none"/><path d="M 330 299 L 330 309" fill="#000000" stroke="#000000" stroke-width="2" stroke-linecap="square" stroke-miterlimit="10" pointer-events="none"/><rect x="306" y="250" width="16" height="14" fill-opacity="0" fill="#dae2f2" stroke="none" pointer-events="none"/><g fill="#000000" font-family="Arial,Helvetica" font-weight="bold" text-anchor="middle" font-size="12px"><text x="314" y="261">R1</text></g><rect x="302" y="276" width="18" height="13" fill-opacity="0" fill="#dae2f2" stroke="none" pointer-events="none"/><g fill="#000000" font-family="Arial,Helvetica" font-weight="bold" text-anchor="middle" font-size="12px"><text x="311" y="286.5">44k</text></g><path d="M 330 60 L 330 120" fill="none" stroke="#000000" stroke-width="2" stroke-miterlimit="10" pointer-events="none"/><path d="M 330 180 L 330 250" fill="none" stroke="#000000" stroke-width="2" stroke-miterlimit="10" pointer-events="none"/><rect x="399" y="219" width="2" height="2" fill="#000000" stroke="none" pointer-events="none"/><rect x="439" y="189" width="2" height="2" fill="#000000" stroke="none" pointer-events="none"/><rect x="439" y="249" width="2" height="2" fill="#000000" stroke="none" pointer-events="none"/><path d="M 401 220 L 424 220" fill="none" stroke="#000000" stroke-width="2" stroke-linecap="square" stroke-miterlimit="10" pointer-events="none"/><path d="M 425 225 L 440 235" fill="none" stroke="#000000" stroke-width="2" stroke-linejoin="round" stroke-linecap="round" stroke-miterlimit="10" pointer-events="none"/><path d="M 425 215 L 440 205" fill="none" stroke="#000000" stroke-width="2" stroke-linejoin="round" stroke-linecap="round" stroke-miterlimit="10" pointer-events="none"/><path d="M 440 191 L 440 204" fill="none" stroke="#000000" stroke-width="2" stroke-linecap="square" stroke-miterlimit="10" pointer-events="none"/><path d="M 440 236 L 440 249" fill="none" stroke="#000000" stroke-width="2" stroke-linecap="square" stroke-miterlimit="10" pointer-events="none"/><path d="M 425 203 L 425 237" fill="none" stroke="#000000" stroke-width="2" stroke-linejoin="round" stroke-linecap="round" stroke-miterlimit="10" pointer-events="none"/><path d="M 432.16 233.56 L 439.7 234.61 L 435.26 228.42 Z" fill="#000000" stroke="#000000" stroke-linejoin="round" stroke-linecap="round" stroke-miterlimit="10" pointer-events="none"/><rect x="385" y="190" width="16" height="14" fill-opacity="0" fill="#dae2f2" stroke="none" pointer-events="none"/><g fill="#000000" font-family="Arial,Helvetica" font-weight="bold" text-anchor="middle" font-size="12px"><text x="393" y="201">Q1</text></g><rect x="549" y="179" width="2" height="2" fill="#000000" stroke="none" pointer-events="none"/><rect x="589" y="149" width="2" height="2" fill="#000000" stroke="none" pointer-events="none"/><rect x="589" y="209" width="2" height="2" fill="#000000" stroke="none" pointer-events="none"/><path d="M 551 180 L 574 180" fill="none" stroke="#000000" stroke-width="2" stroke-linecap="square" stroke-miterlimit="10" pointer-events="none"/><path d="M 575 185 L 590 195" fill="none" stroke="#000000" stroke-width="2" stroke-linejoin="round" stroke-linecap="round" stroke-miterlimit="10" pointer-events="none"/><path d="M 575 175 L 590 165" fill="none" stroke="#000000" stroke-width="2" stroke-linejoin="round" stroke-linecap="round" stroke-miterlimit="10" pointer-events="none"/><path d="M 590 151 L 590 164" fill="none" stroke="#000000" stroke-width="2" stroke-linecap="square" stroke-miterlimit="10" pointer-events="none"/><path d="M 590 196 L 590 209" fill="none" stroke="#000000" stroke-width="2" stroke-linecap="square" stroke-miterlimit="10" pointer-events="none"/><path d="M 575 163 L 575 197" fill="none" stroke="#000000" stroke-width="2" stroke-linejoin="round" stroke-linecap="round" stroke-miterlimit="10" pointer-events="none"/><path d="M 582.16 193.56 L 589.7 194.61 L 585.26 188.42 Z" fill="#000000" stroke="#000000" stroke-linejoin="round" stroke-linecap="round" stroke-miterlimit="10" pointer-events="none"/><rect x="535" y="150" width="16" height="14" fill-opacity="0" fill="#dae2f2" stroke="none" pointer-events="none"/><g fill="#000000" font-family="Arial,Helvetica" font-weight="bold" text-anchor="middle" font-size="12px"><text x="543" y="161">Q2</text></g><rect x="439" y="99" width="2" height="2" fill="#000000" stroke="none" pointer-events="none"/><rect x="439" y="159" width="2" height="2" fill="#000000" stroke="none" pointer-events="none"/><path d="M 440 112 L 447 115 L 440 118" fill="none" stroke="#000000" stroke-width="2" stroke-linejoin="round" stroke-linecap="round" stroke-miterlimit="10" pointer-events="none"/><path d="M 440 118 L 433 121 L 440 124" fill="none" stroke="#000000" stroke-width="2" stroke-linejoin="round" stroke-linecap="round" stroke-miterlimit="10" pointer-events="none"/><path d="M 440 124 L 447 127 L 440 130" fill="none" stroke="#000000" stroke-width="2" stroke-linejoin="round" stroke-linecap="round" stroke-miterlimit="10" pointer-events="none"/><path d="M 440 130 L 433 133 L 440 136" fill="none" stroke="#000000" stroke-width="2" stroke-linejoin="round" stroke-linecap="round" stroke-miterlimit="10" pointer-events="none"/><path d="M 440 136 L 447 139 L 440 142" fill="none" stroke="#000000" stroke-width="2" stroke-linejoin="round" stroke-linecap="round" stroke-miterlimit="10" pointer-events="none"/><path d="M 440 142 L 433 145 L 440 148" fill="none" stroke="#000000" stroke-width="2" stroke-linejoin="round" stroke-linecap="round" stroke-miterlimit="10" pointer-events="none"/><path d="M 440 101 L 440 111" fill="#000000" stroke="#000000" stroke-width="2" stroke-linecap="square" stroke-miterlimit="10" pointer-events="none"/><path d="M 440 149 L 440 159" fill="#000000" stroke="#000000" stroke-width="2" stroke-linecap="square" stroke-miterlimit="10" pointer-events="none"/><rect x="416" y="100" width="16" height="14" fill-opacity="0" fill="#dae2f2" stroke="none" pointer-events="none"/><g fill="#000000" font-family="Arial,Helvetica" font-weight="bold" text-anchor="middle" font-size="12px"><text x="424" y="111">R2</text></g><rect x="409" y="126" width="23" height="14" fill-opacity="0" fill="#dae2f2" stroke="none" pointer-events="none"/><g fill="#000000" font-family="Arial,Helvetica" font-weight="bold" text-anchor="middle" font-size="12px"><text x="420.5" y="137">4.7k</text></g><rect x="589" y="89" width="2" height="2" fill="#000000" stroke="none" pointer-events="none"/><rect x="589" y="149" width="2" height="2" fill="#000000" stroke="none" pointer-events="none"/><path d="M 590 102 L 597 105 L 590 108" fill="none" stroke="#000000" stroke-width="2" stroke-linejoin="round" stroke-linecap="round" stroke-miterlimit="10" pointer-events="none"/><path d="M 590 108 L 583 111 L 590 114" fill="none" stroke="#000000" stroke-width="2" stroke-linejoin="round" stroke-linecap="round" stroke-miterlimit="10" pointer-events="none"/><path d="M 590 114 L 597 117 L 590 120" fill="none" stroke="#000000" stroke-width="2" stroke-linejoin="round" stroke-linecap="round" stroke-miterlimit="10" pointer-events="none"/><path d="M 590 120 L 583 123 L 590 126" fill="none" stroke="#000000" stroke-width="2" stroke-linejoin="round" stroke-linecap="round" stroke-miterlimit="10" pointer-events="none"/><path d="M 590 126 L 597 129 L 590 132" fill="none" stroke="#000000" stroke-width="2" stroke-linejoin="round" stroke-linecap="round" stroke-miterlimit="10" pointer-events="none"/><path d="M 590 132 L 583 135 L 590 138" fill="none" stroke="#000000" stroke-width="2" stroke-linejoin="round" stroke-linecap="round" stroke-miterlimit="10" pointer-events="none"/><path d="M 590 91 L 590 101" fill="#000000" stroke="#000000" stroke-width="2" stroke-linecap="square" stroke-miterlimit="10" pointer-events="none"/><path d="M 590 139 L 590 149" fill="#000000" stroke="#000000" stroke-width="2" stroke-linecap="square" stroke-miterlimit="10" pointer-events="none"/><rect x="566" y="90" width="16" height="14" fill-opacity="0" fill="#dae2f2" stroke="none" pointer-events="none"/><g fill="#000000" font-family="Arial,Helvetica" font-weight="bold" text-anchor="middle" font-size="12px"><text x="574" y="101">R3</text></g><rect x="559" y="116" width="23" height="14" fill-opacity="0" fill="#dae2f2" stroke="none" pointer-events="none"/><g fill="#000000" font-family="Arial,Helvetica" font-weight="bold" text-anchor="middle" font-size="12px"><text x="570.5" y="127">2.2k</text></g><rect x="439" y="269" width="2" height="2" fill="#000000" stroke="none" pointer-events="none"/><rect x="439" y="329" width="2" height="2" fill="#000000" stroke="none" pointer-events="none"/><path d="M 440 282 L 447 285 L 440 288" fill="none" stroke="#000000" stroke-width="2" stroke-linejoin="round" stroke-linecap="round" stroke-miterlimit="10" pointer-events="none"/><path d="M 440 288 L 433 291 L 440 294" fill="none" stroke="#000000" stroke-width="2" stroke-linejoin="round" stroke-linecap="round" stroke-miterlimit="10" pointer-events="none"/><path d="M 440 294 L 447 297 L 440 300" fill="none" stroke="#000000" stroke-width="2" stroke-linejoin="round" stroke-linecap="round" stroke-miterlimit="10" pointer-events="none"/><path d="M 440 300 L 433 303 L 440 306" fill="none" stroke="#000000" stroke-width="2" stroke-linejoin="round" stroke-linecap="round" stroke-miterlimit="10" pointer-events="none"/><path d="M 440 306 L 447 309 L 440 312" fill="none" stroke="#000000" stroke-width="2" stroke-linejoin="round" stroke-linecap="round" stroke-miterlimit="10" pointer-events="none"/><path d="M 440 312 L 433 315 L 440 318" fill="none" stroke="#000000" stroke-width="2" stroke-linejoin="round" stroke-linecap="round" stroke-miterlimit="10" pointer-events="none"/><path d="M 440 271 L 440 281" fill="#000000" stroke="#000000" stroke-width="2" stroke-linecap="square" stroke-miterlimit="10" pointer-events="none"/><path d="M 440 319 L 440 329" fill="#000000" stroke="#000000" stroke-width="2" stroke-linecap="square" stroke-miterlimit="10" pointer-events="none"/><rect x="416" y="270" width="16" height="14" fill-opacity="0" fill="#dae2f2" stroke="none" pointer-events="none"/><g fill="#000000" font-family="Arial,Helvetica" font-weight="bold" text-anchor="middle" font-size="12px"><text x="424" y="281">R4</text></g><rect x="412" y="296" width="21" height="14" fill-opacity="0" fill="#dae2f2" stroke="none" pointer-events="none"/><g fill="#000000" font-family="Arial,Helvetica" font-weight="bold" text-anchor="middle" font-size="12px"><text x="422.5" y="307">470</text></g><rect x="539" y="189" width="2" height="2" fill="#000000" stroke="none" pointer-events="none"/><rect x="539" y="249" width="2" height="2" fill="#000000" stroke="none" pointer-events="none"/><path d="M 540 202 L 547 205 L 540 208" fill="none" stroke="#000000" stroke-width="2" stroke-linejoin="round" stroke-linecap="round" stroke-miterlimit="10" pointer-events="none"/><path d="M 540 208 L 533 211 L 540 214" fill="none" stroke="#000000" stroke-width="2" stroke-linejoin="round" stroke-linecap="round" stroke-miterlimit="10" pointer-events="none"/><path d="M 540 214 L 547 217 L 540 220" fill="none" stroke="#000000" stroke-width="2" stroke-linejoin="round" stroke-linecap="round" stroke-miterlimit="10" pointer-events="none"/><path d="M 540 220 L 533 223 L 540 226" fill="none" stroke="#000000" stroke-width="2" stroke-linejoin="round" stroke-linecap="round" stroke-miterlimit="10" pointer-events="none"/><path d="M 540 226 L 547 229 L 540 232" fill="none" stroke="#000000" stroke-width="2" stroke-linejoin="round" stroke-linecap="round" stroke-miterlimit="10" pointer-events="none"/><path d="M 540 232 L 533 235 L 540 238" fill="none" stroke="#000000" stroke-width="2" stroke-linejoin="round" stroke-linecap="round" stroke-miterlimit="10" pointer-events="none"/><path d="M 540 191 L 540 201" fill="#000000" stroke="#000000" stroke-width="2" stroke-linecap="square" stroke-miterlimit="10" pointer-events="none"/><path d="M 540 239 L 540 249" fill="#000000" stroke="#000000" stroke-width="2" stroke-linecap="square" stroke-miterlimit="10" pointer-events="none"/><rect x="516" y="190" width="16" height="14" fill-opacity="0" fill="#dae2f2" stroke="none" pointer-events="none"/><g fill="#000000" font-family="Arial,Helvetica" font-weight="bold" text-anchor="middle" font-size="12px"><text x="524" y="201">R5</text></g><rect x="509" y="216" width="23" height="14" fill-opacity="0" fill="#dae2f2" stroke="none" pointer-events="none"/><g fill="#000000" font-family="Arial,Helvetica" font-weight="bold" text-anchor="middle" font-size="12px"><text x="520.5" y="227">4.4k</text></g><path d="M 440 250 L 440 270 L 440 270" fill="none" stroke="#000000" stroke-width="2" stroke-miterlimit="10" pointer-events="none"/><path d="M 440 160 L 440 190" fill="none" stroke="#000000" stroke-width="2" stroke-miterlimit="10" pointer-events="none"/><path d="M 590 150 L 590 150" fill="none" stroke="#000000" stroke-width="2" stroke-miterlimit="10" pointer-events="none"/><path d="M 550 180 L 540 180 L 540 190" fill="none" stroke="#000000" stroke-width="2" stroke-miterlimit="10" pointer-events="none"/><path d="M 538 180 L 442 180" fill="none" stroke="#000000" stroke-width="2" stroke-miterlimit="10" pointer-events="none"/><ellipse cx="540" cy="180" rx="2" ry="2" fill="#000000" stroke="#000000" stroke-width="2" pointer-events="none"/><ellipse cx="440" cy="180" rx="2" ry="2" fill="#000000" stroke="#000000" stroke-width="2" pointer-events="none"/><path d="M 590 150 L 660 150" fill="none" stroke="#000000" stroke-width="2" stroke-miterlimit="10" pointer-events="none"/><path d="M 332 220 L 400 220" fill="none" stroke="#000000" stroke-width="2" stroke-miterlimit="10" pointer-events="none"/><ellipse cx="330" cy="220" rx="2" ry="2" fill="#000000" stroke="#000000" stroke-width="2" pointer-events="none"/><path d="M 332 80 L 440 80 L 440 100" fill="none" stroke="#000000" stroke-width="2" stroke-miterlimit="10" pointer-events="none"/><ellipse cx="330" cy="80" rx="2" ry="2" fill="#000000" stroke="#000000" stroke-width="2" pointer-events="none"/><path d="M 442 80 L 590 80 L 590 90" fill="none" stroke="#000000" stroke-width="2" stroke-miterlimit="10" pointer-events="none"/><ellipse cx="440" cy="80" rx="2" ry="2" fill="#000000" stroke="#000000" stroke-width="2" pointer-events="none"/><path d="M 442 340 L 540 340 L 540 250" fill="none" stroke="#000000" stroke-width="2" stroke-miterlimit="10" pointer-events="none"/><ellipse cx="440" cy="340" rx="2" ry="2" fill="#000000" stroke="#000000" stroke-width="2" pointer-events="none"/><path d="M 330 310 L 330 340" fill="none" stroke="#000000" stroke-width="2" stroke-miterlimit="10" pointer-events="none"/><path d="M 332 340 L 440 340 L 440 330" fill="none" stroke="#000000" stroke-width="2" stroke-miterlimit="10" pointer-events="none"/><ellipse cx="330" cy="340" rx="2" ry="2" fill="#000000" stroke="#000000" stroke-width="2" pointer-events="none"/><path d="M 442 260 L 590 260 L 590 210" fill="none" stroke="#000000" stroke-width="2" stroke-miterlimit="10" pointer-events="none"/><ellipse cx="440" cy="260" rx="2" ry="2" fill="#000000" stroke="#000000" stroke-width="2" pointer-events="none"/></g></svg>